<mxfile host="app.diagrams.net" modified="2023-09-22T08:39:48.978Z" agent="Mozilla/5.0 (Macintosh; Intel Mac OS X 10_15_7) AppleWebKit/537.36 (KHTML, like Gecko) Chrome/117.0.0.0 Safari/537.36" version="21.8.0" etag="ay-MOXk0HuCoBNnH_cJu" type="github">
  <diagram name="페이지-1" id="P0mM0MkAZpPclPZ-lQYB">
    <mxGraphModel>
      <root>
        <mxCell id="0" />
        <mxCell id="1" parent="0" />
      </root>
    </mxGraphModel>
  </diagram>
</mxfile>
